<?xml version="1.0" standalone="no"?>
<!DOCTYPE svg PUBLIC "-//W3C//DTD SVG 20010904//EN"
 "http://www.w3.org/TR/2001/REC-SVG-20010904/DTD/svg10.dtd">
<svg version="1.0" xmlns="http://www.w3.org/2000/svg"
 width="499.000000pt" height="154.000000pt" viewBox="0 0 499.000000 154.000000"
 preserveAspectRatio="xMidYMid meet">
<metadata>
Created by potrace 1.10, written by Peter Selinger 2001-2011
</metadata>
<g transform="translate(0.000000,154.000000) scale(0.100000,-0.100000)"
fill="#bf9000" stroke="none">
<path d="M460 1507 c-204 -61 -370 -231 -430 -442 -25 -87 -27 -262 -5 -350
58 -229 248 -413 485 -471 73 -18 232 -18 303 1 239 62 419 242 481 482 18 69
21 224 6 293 -51 227 -223 416 -443 485 -107 34 -285 35 -397 2z m332 -11 c36
-8 98 -30 137 -48 69 -31 88 -48 55 -48 -36 0 -74 -35 -96 -87 -12 -29 -24
-53 -28 -53 -3 0 -16 7 -28 16 -12 8 -28 12 -35 8 -6 -4 -4 2 6 14 43 49 0 72
-113 62 -54 -5 -55 -6 -60 -40 l-5 -34 -12 26 c-9 21 -17 25 -35 21 -13 -4
-26 -11 -30 -17 -4 -6 -8 2 -8 17 0 34 -16 67 -32 67 -20 0 -48 -32 -48 -54 0
-17 -6 -21 -32 -21 -28 0 -33 -4 -36 -26 -2 -14 4 -31 12 -38 14 -12 14 -15 0
-29 -9 -9 -14 -26 -12 -42 3 -19 -2 -31 -14 -39 -29 -18 -41 -60 -27 -93 6
-15 15 -28 20 -28 5 0 9 -6 9 -14 0 -8 5 -16 11 -18 9 -3 9 -9 1 -24 -6 -11
-10 -75 -9 -154 l2 -135 -30 -15 c-25 -13 -33 -14 -50 -3 -28 19 -59 16 -90
-9 -25 -19 -27 -26 -23 -73 2 -28 14 -69 25 -91 l20 -39 94 -4 c237 -10 474
-10 486 0 6 6 18 7 25 3 36 -23 111 -6 129 27 6 13 10 115 9 282 l-2 262 30
80 c16 44 40 106 52 137 19 47 21 62 11 89 -10 29 -9 30 7 18 83 -65 170 -211
192 -327 18 -88 9 -285 -15 -337 -10 -22 -19 -45 -21 -52 -7 -37 -77 -136
-134 -193 -67 -68 -135 -111 -230 -148 -67 -26 -103 -31 -217 -33 -122 -1
-153 6 -270 62 -196 96 -301 239 -349 479 -15 76 -15 87 1 168 22 111 48 182
97 259 42 67 137 160 190 188 95 50 120 60 203 81 99 25 161 25 267 0z m-272
-166 c0 -54 19 -69 40 -30 13 24 28 26 37 4 3 -9 -6 -28 -26 -48 -29 -30 -31
-36 -31 -107 0 -42 -3 -79 -7 -82 -4 -4 -18 14 -32 40 -14 25 -34 50 -43 55
-10 4 -26 12 -35 17 -25 12 -22 36 4 36 37 0 38 14 3 50 -26 27 -31 38 -22 47
9 9 17 6 36 -11 32 -30 46 -20 46 35 0 32 4 44 15 44 11 0 15 -12 15 -50z
m507 35 c40 -28 37 -57 -18 -208 -29 -78 -58 -148 -64 -155 -10 -11 -17 -10
-43 5 -29 17 -31 17 -50 0 -17 -15 -24 -16 -39 -6 -19 11 -19 15 17 108 21 53
50 129 65 169 36 96 79 124 132 87z m-227 -35 c0 -18 -7 -20 -75 -20 -68 0
-75 2 -75 20 0 18 7 20 75 20 68 0 75 -2 75 -20z m-50 -75 c-21 -22 -32 -25
-93 -25 l-70 0 23 25 c19 20 34 25 89 27 36 2 68 2 70 0 3 -1 -6 -13 -19 -27z
m80 0 c16 -14 14 -24 -28 -135 -25 -66 -48 -120 -51 -120 -3 0 -5 48 -3 107 3
100 6 110 30 136 30 32 30 32 52 12z m-115 -127 c0 -40 3 -91 7 -113 4 -22 5
-34 2 -27 -3 6 -11 9 -16 6 -7 -4 -8 -2 -4 4 11 18 -19 76 -47 91 -14 7 -39
11 -56 9 l-31 -5 0 54 0 53 73 0 72 0 0 -72z m-269 4 c11 -7 64 -105 64 -118
0 -3 -7 -3 -16 0 -10 4 -25 -1 -34 -9 -15 -14 -21 -14 -39 -3 -26 16 -27 25
-1 33 11 3 20 11 20 16 0 18 -31 21 -49 5 -17 -16 -19 -16 -25 -1 -21 55 34
108 80 77z m210 -85 l26 -23 -27 -18 c-24 -16 -28 -16 -44 -2 -22 20 -30 20
-53 -1 -24 -21 -33 -11 -17 19 28 52 72 62 115 25z m-142 -82 c17 -13 22 -12
46 2 25 14 30 14 50 0 20 -14 24 -14 50 1 27 15 30 15 48 -2 19 -16 22 -16 45
-2 13 9 32 14 41 10 14 -5 16 -34 16 -258 l0 -251 -190 0 c-104 0 -190 0 -190
1 0 0 7 15 15 32 25 49 31 127 12 156 -9 13 -25 27 -35 30 -16 6 -19 20 -20
146 -2 77 1 140 6 140 4 0 13 -5 20 -12 10 -9 16 -8 29 5 21 20 32 21 57 2z
m393 0 c14 -10 24 -12 28 -5 3 5 12 10 18 10 9 0 11 -59 9 -240 -3 -236 -3
-240 -25 -253 -12 -8 -38 -13 -57 -12 l-35 2 -2 243 c-3 241 1 270 31 270 6 0
21 -7 33 -15z m-607 -320 c7 -8 18 -15 25 -15 7 0 18 7 25 15 27 32 90 5 90
-40 0 -12 -7 -45 -15 -73 -18 -59 -43 -79 -76 -61 -16 8 -28 8 -45 0 -13 -6
-31 -8 -39 -5 -41 16 -71 147 -40 177 20 21 58 22 75 2z"/>
<path d="M935 1260 c-5 -7 11 -83 20 -98 1 -1 9 0 17 3 14 6 14 11 0 56 -16
48 -25 58 -37 39z"/>
<path d="M891 1151 c-19 -12 8 -95 34 -99 15 -3 17 1 11 23 -15 58 -30 85 -45
76z"/>
<path d="M2787 1375 c-18 -18 -31 -103 -22 -145 8 -35 2 -37 -27 -10 -15 14
-36 20 -65 20 -97 0 -142 -59 -143 -188 0 -83 15 -125 59 -166 24 -24 40 -29
76 -29 38 0 51 5 80 33 l35 34 0 -27 c0 -53 73 -61 87 -9 5 15 8 124 8 243 0
199 -2 219 -19 238 -22 25 -49 27 -69 6z m47 -24 c5 -7 10 -379 7 -443 -1 -11
-9 -18 -22 -18 -11 0 -18 4 -14 10 3 5 -5 16 -19 25 -23 16 -24 18 -10 50 17
41 18 118 3 148 -16 31 -50 57 -77 57 -58 0 -92 -49 -92 -132 0 -75 37 -128
90 -128 14 0 32 6 39 13 11 10 13 9 9 -3 -2 -8 -21 -23 -42 -34 -33 -16 -41
-17 -73 -5 -53 21 -73 65 -73 164 1 88 11 116 56 146 37 24 44 24 100 -2 61
-29 74 -16 77 72 1 35 6 70 10 77 10 14 24 16 31 3z m-90 -223 c35 -58 25
-145 -20 -175 -24 -15 -27 -15 -52 4 -14 10 -30 33 -34 49 -11 38 -1 104 19
126 23 26 69 23 87 -4z"/>
<path d="M1552 1234 c-21 -15 -22 -21 -22 -180 0 -151 2 -166 20 -184 24 -24
39 -25 66 -6 16 12 20 31 24 134 5 128 14 152 56 152 36 0 44 -29 44 -149 0
-98 2 -113 20 -131 25 -25 45 -25 70 0 17 17 20 33 20 123 0 112 12 150 48
155 45 7 52 -11 52 -139 0 -106 2 -121 20 -139 24 -24 38 -25 68 -4 21 14 22
22 22 155 0 188 -16 219 -114 219 -33 0 -52 -6 -75 -25 l-30 -26 -25 26 c-36
35 -112 36 -154 0 -30 -25 -48 -33 -37 -15 6 9 -28 50 -43 50 -4 0 -18 -7 -30
-16z m260 -52 l27 -25 38 29 c44 34 103 39 130 11 15 -15 19 -41 23 -149 5
-137 -1 -167 -34 -155 -13 5 -16 24 -16 120 0 110 -1 115 -26 141 -15 14 -37
26 -49 26 -22 0 -74 -43 -76 -64 -1 -6 -4 -58 -8 -116 -5 -96 -8 -105 -26
-105 -19 0 -20 9 -26 115 -3 73 -11 123 -20 138 -17 28 -53 38 -85 23 -39 -17
-54 -68 -54 -181 l0 -100 -25 0 -26 0 3 157 c3 131 6 158 18 161 8 1 22 -9 31
-23 l15 -26 36 25 c62 42 104 41 150 -2z"/>
<path d="M2973 1239 c-42 -16 -39 -49 22 -220 l57 -161 -19 -27 c-15 -19 -30
-27 -61 -29 -65 -5 -81 -56 -26 -81 65 -29 154 -1 183 58 10 20 46 121 81 224
66 201 69 227 21 240 -37 9 -58 -23 -86 -128 -15 -55 -30 -108 -34 -119 -5
-13 -18 20 -41 104 -37 132 -54 156 -97 139z m34 -31 c5 -7 22 -58 37 -113 16
-55 35 -108 44 -118 14 -16 17 -16 33 -1 9 8 20 28 24 42 25 102 58 192 71
192 9 0 14 -10 14 -27 0 -35 -34 -149 -50 -169 -7 -8 -10 -14 -7 -14 5 0 -46
-159 -68 -213 -15 -37 -107 -61 -144 -38 -15 10 -6 32 12 30 50 -6 97 33 97
80 0 28 -46 172 -76 238 -8 17 -17 45 -20 62 -10 49 10 79 33 49z"/>
<path d="M4036 1235 c-13 -14 -12 -23 9 -86 14 -39 22 -76 18 -82 -3 -6 -1 -7
5 -3 11 7 16 -12 15 -51 -1 -7 4 -13 9 -13 6 0 8 -6 5 -14 -3 -7 -2 -17 3 -22
5 -5 11 -20 13 -34 8 -44 28 -77 45 -75 24 1 43 15 37 25 -3 4 7 48 21 96 15
49 28 117 29 152 5 99 23 102 29 6 2 -32 7 -66 10 -74 3 -8 7 -26 10 -40 2
-14 12 -52 22 -85 10 -33 18 -64 18 -69 1 -5 11 -11 23 -12 18 -3 25 5 43 54
12 31 24 64 25 72 2 8 4 15 5 15 1 0 4 14 6 30 3 17 9 31 14 33 5 2 6 10 3 18
-3 8 -1 14 5 14 6 0 8 10 4 22 -4 16 -2 19 8 13 8 -5 11 -4 6 3 -3 6 0 29 7
51 15 43 9 65 -18 59 -15 -3 -28 -37 -84 -223 -2 -10 -3 -21 -1 -72 1 -44 -2
-53 -16 -53 -14 0 -16 8 -12 50 3 27 2 51 -2 52 -5 2 -10 19 -13 38 -6 39 -46
190 -53 202 -3 4 -14 8 -25 8 -20 0 -33 -24 -44 -78 -3 -15 -7 -32 -9 -39 -1
-7 -5 -15 -8 -19 -4 -3 -4 -12 -2 -19 3 -7 1 -16 -5 -19 -6 -4 -8 -13 -4 -21
3 -8 1 -15 -4 -15 -4 0 -8 -27 -8 -61 0 -98 -24 -113 -31 -17 -1 29 -12 83
-24 121 -11 37 -18 71 -15 76 3 5 1 11 -5 13 -6 2 -12 18 -14 35 -7 55 -22 66
-50 38z"/>
<path d="M2203 1220 c-58 -35 -72 -104 -24 -121 19 -8 28 -3 55 26 25 27 40
35 68 35 37 0 64 -21 55 -43 -3 -7 -44 -24 -91 -36 -98 -26 -136 -58 -136
-114 0 -104 123 -148 214 -76 15 12 28 20 29 18 32 -60 47 -68 82 -45 23 15
26 22 20 49 -3 18 -10 84 -14 147 -8 131 -13 145 -52 165 -43 23 -166 20 -206
-5z m164 -9 c38 -2 59 -35 62 -99 1 -31 6 -88 11 -127 5 -38 10 -76 10 -82 0
-21 -38 -15 -50 7 -6 11 -17 20 -25 20 -18 0 -18 0 -2 41 18 44 8 83 -21 87
l-23 3 26 20 c52 42 18 109 -55 109 -33 0 -47 -6 -74 -35 -34 -34 -46 -36 -46
-5 0 36 69 70 130 65 19 -2 45 -4 57 -4z m-82 -161 c-3 -5 -12 -10 -20 -10 -7
0 -23 -14 -35 -30 -28 -40 -20 -74 23 -100 l32 -20 -47 0 c-55 0 -78 23 -78
77 0 39 23 62 78 79 49 15 54 16 47 4z m72 -47 c-7 -42 -37 -73 -71 -73 -54 0
-64 60 -13 83 29 14 58 23 81 26 5 0 6 -16 3 -36z"/>
<path d="M3391 1224 c-116 -60 -122 -267 -9 -341 67 -45 179 -33 230 24 73 80
59 246 -25 307 -38 28 -149 33 -196 10z m164 -25 c51 -24 75 -72 75 -149 0
-58 -4 -72 -29 -106 -32 -45 -75 -63 -141 -58 -86 6 -130 62 -130 164 0 96 33
141 115 160 40 10 74 6 110 -11z"/>
<path d="M3473 1179 c-60 -12 -93 -59 -93 -132 0 -57 43 -126 80 -128 45 -2
55 2 88 36 28 31 32 41 32 91 0 89 -46 147 -107 133z m60 -51 c12 -14 17 -37
17 -80 0 -49 -4 -63 -25 -83 -53 -54 -115 -9 -115 84 0 95 70 140 123 79z"/>
<path d="M3709 1228 c-11 -38 -10 -38 102 -38 76 0 109 -3 109 -12 0 -6 3 -8
6 -5 4 4 1 14 -7 24 -8 9 -9 14 -2 10 6 -4 13 -1 16 5 4 10 7 10 18 1 10 -10
9 -16 -6 -33 -10 -11 -21 -17 -26 -15 -9 6 -59 -41 -59 -55 0 -6 -9 -15 -20
-22 -11 -7 -20 -18 -20 -25 0 -7 -6 -16 -13 -20 -7 -4 -20 -19 -29 -33 -8 -14
-27 -38 -42 -53 -34 -37 -45 -59 -37 -77 8 -20 288 -22 310 -2 11 11 11 15 -5
28 -24 19 -215 15 -222 -4 -4 -13 -62 -17 -62 -4 1 16 69 96 77 89 3 -4 -3
-15 -14 -24 -11 -10 -22 -28 -26 -41 -5 -20 -1 -18 26 12 18 19 54 64 81 100
27 36 53 66 57 66 5 0 8 4 7 9 -2 5 10 24 27 42 16 19 28 36 26 38 -1 2 3 8
11 12 29 19 -20 29 -149 29 -73 0 -133 -1 -134 -2z m134 -183 c-3 -9 -8 -14
-10 -11 -3 3 -2 9 2 15 9 16 15 13 8 -4z"/>
<path d="M1807 613 c-4 -3 -7 -64 -7 -135 0 -107 2 -128 15 -128 13 0 15 22
15 135 0 123 -4 147 -23 128z"/>
<path d="M3457 614 c-4 -4 -7 -65 -7 -136 0 -100 3 -129 13 -125 6 2 11 10 10
16 -4 16 12 14 27 -4 19 -22 58 -18 85 10 36 35 36 115 0 150 -28 28 -53 31
-81 10 -28 -21 -30 -19 -26 26 4 39 -7 67 -21 53z m113 -113 c14 -27 13 -94
-2 -109 -19 -19 -66 -15 -78 7 -15 30 -12 82 7 103 21 24 60 23 73 -1z"/>
<path d="M4007 613 c-4 -3 -7 -64 -7 -135 0 -107 2 -128 15 -128 10 0 15 10
15 34 0 39 8 66 20 66 5 0 21 -22 36 -50 15 -27 31 -50 35 -50 22 0 16 25 -15
72 l-35 52 31 28 c24 22 29 31 20 40 -6 6 -13 10 -15 7 -1 -2 -19 -23 -40 -47
l-37 -42 0 80 c0 73 -6 91 -23 73z"/>
<path d="M2340 570 c0 -16 -4 -30 -10 -30 -5 0 -10 -4 -10 -10 0 -5 6 -10 13
-10 9 0 11 -18 9 -64 -4 -78 9 -108 45 -104 36 4 43 28 9 28 -25 0 -26 1 -26
69 0 62 2 69 23 76 l22 8 -22 4 c-18 3 -23 11 -23 34 0 19 -5 29 -15 29 -10 0
-15 -10 -15 -30z"/>
<path d="M4350 570 c0 -20 -5 -30 -15 -30 -8 0 -15 -4 -15 -10 0 -5 7 -10 15
-10 12 0 15 -16 15 -80 0 -76 1 -80 24 -86 26 -6 46 1 46 16 0 5 -10 10 -22
12 -21 3 -23 9 -26 71 -3 62 -1 67 18 67 11 0 20 5 20 10 0 6 -9 10 -20 10
-16 0 -20 7 -20 30 0 17 -4 30 -10 30 -5 0 -10 -13 -10 -30z"/>
<path d="M1445 540 c-3 -5 -1 -19 6 -31 6 -12 21 -52 34 -88 13 -38 28 -66 36
-66 15 0 82 171 73 186 -12 20 -22 5 -44 -66 -13 -41 -26 -75 -29 -75 -3 0
-16 34 -29 75 -21 71 -33 87 -47 65z"/>
<path d="M1633 524 c-19 -19 -23 -28 -14 -37 8 -8 15 -6 27 11 26 38 84 26 84
-18 0 -5 -19 -11 -42 -15 -24 -4 -51 -14 -60 -23 -54 -47 21 -120 78 -77 25
19 34 19 34 -1 0 -9 5 -14 11 -12 6 2 10 7 10 11 -1 4 -1 39 -1 77 0 57 -4 74
-20 90 -28 28 -75 26 -107 -6z m97 -93 c0 -27 -27 -51 -56 -51 -47 0 -39 54 9
63 42 8 47 7 47 -12z"/>
<path d="M1880 467 c0 -89 13 -117 55 -117 10 0 27 7 37 17 17 15 18 15 18 0
0 -10 7 -17 15 -17 13 0 15 15 13 97 -2 66 -7 98 -15 101 -10 3 -13 -15 -13
-66 0 -77 -15 -106 -54 -100 -19 3 -22 11 -26 82 -3 51 -10 81 -17 84 -10 3
-13 -18 -13 -81z"/>
<path d="M2085 525 c-20 -19 -25 -34 -25 -75 0 -86 63 -127 124 -79 25 19 36
49 18 49 -5 0 -18 -11 -30 -25 -12 -14 -28 -25 -36 -25 -15 0 -56 45 -56 61 0
5 27 9 60 9 69 0 80 11 60 61 -23 54 -75 65 -115 24z m83 -17 c27 -27 14 -43
-38 -44 -55 -1 -57 1 -34 34 17 24 53 29 72 10z"/>
<path d="M2473 540 c-30 -12 -43 -41 -43 -95 0 -107 121 -131 149 -30 12 45
-2 99 -32 120 -24 17 -41 18 -74 5z m67 -35 c7 -8 13 -34 14 -56 2 -76 -69
-100 -94 -33 -10 27 -4 70 13 92 13 17 52 15 67 -3z"/>
<path d="M2696 541 c-4 -5 8 -48 25 -96 33 -96 33 -132 -4 -137 -31 -4 -28
-22 5 -26 33 -4 39 6 84 142 36 106 40 126 25 126 -6 0 -20 -33 -32 -72 -13
-40 -25 -76 -29 -80 -3 -4 -16 29 -30 72 -23 77 -32 91 -44 71z"/>
<path d="M2904 538 c-49 -23 -61 -122 -19 -163 68 -69 161 23 121 119 -21 51
-57 66 -102 44z m70 -40 c19 -26 20 -58 5 -92 -26 -56 -89 -31 -89 35 0 22 5
49 10 60 14 26 55 24 74 -3z"/>
<path d="M3054 535 c-4 -8 -4 -47 -2 -86 3 -55 8 -74 23 -85 24 -18 50 -18 69
1 8 8 17 15 20 15 3 0 6 -7 6 -15 0 -8 5 -15 10 -15 6 0 10 40 10 101 0 76 -3
100 -12 97 -8 -3 -15 -32 -18 -78 -5 -80 -23 -106 -57 -84 -14 9 -19 28 -21
88 -3 71 -15 97 -28 61z"/>
<path d="M3240 450 c0 -82 3 -100 15 -100 12 0 15 15 15 74 0 80 10 99 48 89
16 -4 22 -1 22 10 0 23 -41 33 -55 13 -15 -20 -25 -21 -25 -1 0 8 -4 15 -10
15 -6 0 -10 -40 -10 -100z"/>
<path d="M3680 537 c-14 -7 -26 -23 -28 -35 -4 -28 14 -29 28 -1 16 28 74 23
78 -7 3 -18 -4 -23 -35 -29 -76 -13 -100 -46 -67 -93 18 -26 65 -30 88 -7 8 8
17 15 20 15 3 0 6 -7 6 -15 0 -8 6 -15 13 -15 11 0 13 18 9 83 -3 67 -8 85
-24 100 -24 20 -53 22 -88 4z m80 -111 c0 -31 -22 -48 -57 -44 -42 5 -38 40 7
55 48 16 50 16 50 -11z"/>
<path d="M3852 534 c-37 -26 -26 -65 25 -89 60 -29 68 -39 48 -59 -23 -22 -42
-20 -69 9 -13 13 -26 22 -29 18 -11 -11 -8 -22 13 -43 41 -41 120 -14 120 41
0 25 -6 32 -37 45 -56 21 -68 30 -68 45 0 25 56 24 75 -1 14 -19 18 -20 23 -7
4 10 -3 24 -20 37 -31 24 -51 25 -81 4z"/>
<path d="M4179 521 c-33 -34 -39 -83 -14 -131 26 -50 105 -53 127 -5 16 36 2
42 -26 12 -14 -15 -29 -27 -33 -27 -17 0 -51 30 -56 50 -5 19 -1 20 59 20 l64
0 0 30 c0 36 -39 80 -70 80 -12 0 -35 -13 -51 -29z m79 -14 c25 -30 18 -40
-30 -41 -50 -2 -55 3 -38 35 12 21 52 26 68 6z"/>
<path d="M380 160 c0 -5 11 -10 25 -10 14 0 25 5 25 10 0 6 -11 10 -25 10 -14
0 -25 -4 -25 -10z"/>
</g>
</svg>
