<svg id="pesepay-logo" xmlns="http://www.w3.org/2000/svg" width="166" height="45" viewBox="0 0 166 45">
  <defs>
    <style>
      .cls-1 {
        fill: #a9c216;
      }

      .cls-1, .cls-2 {
        fill-rule: evenodd;
      }

      .cls-2 {
        fill: #684fa3;
      }
    </style>
  </defs>
  <path id="swish" class="cls-1" d="M95.987,44.287l0.158-.061,17.519-2.2,17.518-2.2,0.064,0.064,0.065,0.064L130.5,42.06l-0.813,2.108-4.741.1-4.742.1-12.186-.013L95.83,44.347l0.158-.061h0Z"/>
  <path id="lettering" class="cls-2" d="M136.418,44.847l-0.871-.152-0.762-.248-0.761-.248,0.1-.885,0.1-.885,0.354-.784,0.354-.784,0.54-.534,0.54-.534,0.8-.364,0.8-.364,1.486-.152,1.486-.152,1-.486,1-.486,0.785-.756,0.785-.756,0.461-.72,0.462-.72-0.378-1.53-0.377-1.53-0.622-2.986-0.622-2.986-0.336-1.948-0.337-1.948-0.295-2.271-0.3-2.271-0.2-2.193-0.195-2.193-0.047.156-0.047.156L140,18.875l-1.343,5.581-0.186,1.382-0.186,1.382,0.109,1.339L138.5,29.9l0.221,1.253,0.221,1.253,0.313,0.936,0.313,0.936-0.031.029-0.03.029-2.93.409-2.93.409-0.335.072-0.336.072-0.541-1.169-0.541-1.169-0.787.554-0.786.554-0.951.458-0.95.458-0.944.238-0.944.238-1.511,0-1.511,0-1.015-.237-1.015-.236-0.965-.5-0.965-.5-0.951-.946-0.95-.946-0.518-1.042-0.517-1.041L116.3,28.787l-0.315-1.219-0.1-1.532-0.1-1.532-0.5,1.23-0.5,1.23-0.652,1.076-0.651,1.076-0.764.872-0.764.872-0.713.635-0.713.635-1.109.705-1.108.705-1.13.474-1.131.474-1.4.362-1.4.362-2.613.006-2.614.006-0.413-.115-0.413-.115L96.3,38.459,95.41,41.922l-0.393.587-0.393.587-0.834.411-0.834.411H87.6l0.074-.383,0.074-.383,4.023-16.611L95.791,9.931l0.832-.241,0.832-.241,1.876-.378,1.876-.378,2.044-.184,2.044-.184,1.448,0.1,1.447,0.1,1.216,0.307,1.216,0.308L111.6,9.65l0.979,0.513,1.03,1.018,1.029,1.018,0.5,0.94,0.5,0.94,0.345,1.1,0.345,1.1,0.106,1.723,0.106,1.723,0.3-.783,0.3-.783,0.688-1.333,0.688-1.333,1.063-1.314,1.062-1.314,1.278-1,1.277-1,1.346-.685,1.346-.685,1.285-.4,1.285-.4,1.7-.189,1.7-.189L134.174,8.5,136.5,8.694,137.956,9l1.459,0.311L140.558,9.7l1.143,0.385,2.229,0,2.23,0,0.646,0.29,0.647,0.29,0.582,0.593,0.583,0.593,0.236,0.786,0.236,0.786v1.588l0.317,3.681,0.317,3.681,0.322,2.421,0.323,2.421,0.059,0.059,0.059,0.059,0.595-.914,0.595-.914,1.087-2.063,1.088-2.063,1.082-2.564,1.083-2.564,0.582-1.795,0.582-1.795,0.344-.69,0.345-.69,0.591-.423,0.591-.424,0.68-.186,0.681-.186,2.713,0.046,2.714,0.046-0.824,2.115-0.824,2.115-1,2.35-1.006,2.35L160.5,22.381l-1.683,3.289L157.336,28.1l-1.482,2.428-1.114,1.645-1.114,1.645-1.724,2.4-1.724,2.4-1.023,1.16-1.023,1.16-1.3,1.035L145.526,43l-1.425.695-1.426.695-0.95.244-0.951.244-1.742.062L137.29,45l-0.871-.152v0ZM102.44,29.112l1.106-.232,0.874-.419,0.874-.419,1.112-1.109,1.113-1.108,0.5-1.031,0.5-1.032,0.281-1,0.28-1,0.008-1.88,0.007-1.88-0.282-.8-0.283-.8-0.545-.63-0.546-.63-0.676-.281-0.677-.281-1.584.022-1.584.022-0.475.134-0.475.134-1.612,6.568-1.612,6.568-0.1.576-0.1.576,0.447,0.066L99.433,29.3l0.951,0.021,0.95,0.021,1.106-.232h0Zm26.068,0,0.684-.239,0.839-.627,0.839-.626,0.067-.349L131,26.922l0.259-1.854,0.26-1.854,1.076-4.28,1.077-4.28-0.47-.093-0.471-.093h-2.466l-0.958.295-0.958.295-1.006.71-1.006.71-0.56.679-0.56.679-0.444.7-0.444.7-0.446,1.208-0.445,1.208-0.165,1.31-0.165,1.31,0.152,1.168,0.151,1.168,0.188,0.548L123.79,27.7l0.395,0.526,0.4,0.526,0.652,0.293,0.652,0.293,0.97,0,0.97,0,0.683-.238h0Zm-92.593,5.8L34.962,34.7l-0.839-.327-0.839-.327L32.4,33.489l-0.879-.556-0.788-.813-0.788-.813-0.606-1.253L28.737,28.8l-0.284-1.253L28.168,26.3l0.007-1.958,0.008-1.958,0.282-1.331,0.282-1.331,0.4-1.1,0.4-1.1,0.477-.94,0.477-.94,0.641-.94,0.641-.94,0.961-1,0.961-1,0.9-.687,0.9-.687,1.173-.626,1.173-.626,0.938-.324L39.72,8.5l1.162-.225,1.162-.225h3.124l0.839,0.172,0.839,0.172,1.18,0.554L49.207,9.5l0.81,0.8,0.81,0.8,0.408,0.861,0.408,0.861,0.177,0.83L52,14.484l0,0.893,0,0.893-0.234,1.094-0.234,1.094-0.424.864-0.423.864-1.2,1.192-1.2,1.192-1.5.721-1.5.721-1.5.392-1.5.392-1.869.24-1.869.24H35.525v0.571l0.26,0.755,0.26,0.755,0.6,0.6,0.6,0.6,0.917,0.271L39.088,29.1l1.742-.011,1.742-.011L44,28.826l1.426-.248,0.7-.243,0.7-.243,0.055,0.054L46.929,28.2,46.18,31.3l-0.749,3.1-0.321.121-0.321.121-1.493.254-1.493.254-2.467-.015-2.467-.015-0.953-.207h0Zm2.933-14.8,1.188-.152,1.245-.319,1.245-.319,0.656-.325,0.656-.325,0.45-.413,0.45-.414,0.246-.466,0.246-.466V15.23l-0.311-.42-0.311-.42-0.543-.274-0.543-.274H41.439l-0.781.258-0.781.259-0.834.541-0.834.541-0.572.649-0.572.649-0.6,1.253-0.6,1.253-0.1.509-0.1.509,1-.006,1-.006,1.188-.152h0ZM53.616,34.919L52.465,34.7l-1.146-.344-1.146-.344L49.76,33.8l-0.413-.211,0.615-2.553,0.616-2.553,0.065-.182,0.065-.182,0.954,0.294,0.954,0.294,1.771,0.257,1.771,0.257,1.918-.06,1.918-.06,0.536-.284,0.537-.284,0.374-.4,0.374-.4V26.287L61.543,25.9l-0.272-.387-0.322-.266-0.322-.266L57.9,23.641,55.179,22.3,54.3,21.451,53.413,20.6l-0.506-1.067L52.4,18.463l-0.062-1.507L52.276,15.45l0.177-.815,0.177-.815,0.413-.863,0.413-.863,0.96-1.015,0.96-1.015,1.438-.682L58.251,8.7l1.188-.271,1.188-.272,2.534-.072L65.7,8.013,67.081,8.27l1.386,0.257L69.592,8.9,70.717,9.28,70.8,9.357l0.079,0.078-0.7,2.869-0.7,2.869-0.227-.035L69.022,15.1l-1.663-.577L65.7,13.949l-1.742-.07-1.742-.071-0.686.184-0.686.184-0.565.512-0.565.512-0.015.72-0.015.72,0.332,0.442,0.332,0.442L62.7,18.745l2.361,1.221L66.046,20.6l0.982,0.633,0.655,0.7,0.655,0.7,0.387,0.836,0.387,0.836,0.145,1.26,0.145,1.26-0.151.928-0.151.928-0.242.679-0.242.679-0.384.647-0.384.647-1,.913-1,.913-1.425.66L63,34.485l-1.03.273-1.03.273-3.089.051-3.089.051-1.151-.214h0ZM77.265,34.9l-1.1-.216-1.317-.625-1.317-.625-0.892-.828-0.892-.828-0.611-.928-0.611-.927-0.387-1.211L69.749,27.5l-0.159-1.543-0.159-1.542,0.147-1.523,0.147-1.523,0.328-1.27,0.328-1.27,0.593-1.358,0.593-1.358L72.3,14.99l0.736-1.124,1.124-1.17,1.124-1.17,1.144-.78,1.144-.78,0.983-.489,0.983-.489,1.393-.411,1.393-.411,2.059-.076,2.059-.076,1.069,0.249,1.069,0.249,0.911,0.456L90.4,9.424l0.713,0.626,0.713,0.625,0.509,0.84,0.509,0.84,0.264,1.018,0.264,1.018-0.088,1.488L93.2,17.367l-0.329.927-0.329.927-0.487.75-0.487.75-1.022.945-1.022.945-1.461.7-1.461.7-1.5.392-1.5.392-1.869.24-1.869.24H76.862V26.01l0.492,0.973,0.492,0.974,0.577,0.371L79,28.7l0.713,0.193,0.713,0.193,1.822-.006,1.822-.005,1.374-.257,1.374-.256,0.67-.234,0.67-.234,0.063,0.062,0.063,0.062-0.756,3.089L86.772,34.4l-0.322.121-0.322.121-1.493.254-1.493.254-2.388-.015-2.388-.015-1.1-.216h0Zm4.725-15.1,1.406-.308,0.891-.4,0.891-.4,0.583-.562,0.584-.562,0.18-.743,0.18-.743-0.173-.634-0.173-.634-0.484-.4L85.391,14,85,13.9l-0.4-.1-1.145.073-1.145.073-0.907.411-0.907.411-0.707.573-0.707.573-0.624.924-0.624.924-0.323.853-0.323.853-0.107.423-0.107.423,1.806-.106,1.805-.106ZM0.1,34.009l0.1-.509,3.9-16.212,3.9-16.212,0.057-.071L8.13,0.935l1.776-.271,1.776-.271,3.045-.2L17.772,0,19.8,0.188l2.028,0.188L23.282,0.76l1.453,0.384,1,0.452,1,0.452,0.981,0.72,0.98,0.72,0.631,0.79,0.631,0.79,0.419,0.876,0.419,0.876,0.224,1.044,0.224,1.044,0,0.889,0,0.889-0.171,1.219L30.9,13.125l-0.384,1.2-0.384,1.2-0.764,1.154L28.6,17.837l-1.052.97-1.052.97-1.074.614L24.353,21l-1.033.4-1.033.4-1.185.319-1.184.319-1.584.258-1.584.258-3.161.1-3.161.1L9.291,27.839,8.154,32.516,7.7,33.153l-0.454.637-0.7.364-0.7.364H0ZM18.229,16.282l1-.248,0.826-.386,0.826-.386,0.661-.559,0.661-.559,0.5-1.012,0.5-1.012,0.015-1.292,0.015-1.292-0.371-.75L22.5,8.035l-0.577-.39-0.577-.39-0.981-.3-0.981-.3-1.553-.1-1.553-.1-0.935.127-0.935.127-1.159,4.856-1.159,4.856-0.006.138-0.006.138,2.574-.086,2.574-.086,1-.248h0Z"/>
</svg>
